<svg data-v-fde0c5aa="" xmlns="http://www.w3.org/2000/svg" viewBox="0 0 300 300" class="iconLeft"><!----><defs data-v-fde0c5aa=""><!----></defs><rect data-v-fde0c5aa="" fill="#665D1B" x="0" y="0" width="300px" height="300px" class="logo-background-square"></rect><defs data-v-fde0c5aa=""><!----></defs><g data-v-fde0c5aa="" id="4f8e9cb1-a104-444d-a130-d9070be97d0a" fill="#FFFFFF" transform="matrix(1.7562729824440861,0,0,1.7562729824440861,77.62716511619618,131.64263560637545)"><path d="M4.77 7.01L4.77 7.01L4.77 7.01Q5.01 6.97 5.07 6.87L5.07 6.87L5.07 6.87Q5.12 6.78 5.08 6.48L5.08 6.48L5.08 6.48Q5.01 6.01 4.79 5.52L4.79 5.52L4.79 5.52Q4.63 5.22 4.51 5.13L4.51 5.13L4.51 5.13Q4.38 5.04 4.14 5.05L4.14 5.05L4.14 5.05Q3.65 5.08 3.16 5.14L3.16 5.14L3.16 5.14Q2.66 5.19 2.18 5.27L2.18 5.27L2.18 5.27Q1.69 5.35 1.26 5.45L1.26 5.45L1.26 5.45Q0.83 5.56 0.48 5.68L0.48 5.68L0.48 5.68Q0.49 6.23 0.43 6.99L0.43 6.99L0.43 6.99Q0.38 7.76 0.28 8.62L0.28 8.62L0.28 8.62Q0.18 9.49 0.06 10.39L0.06 10.39L0.06 10.39Q-0.07 11.28-0.18 12.10L-0.18 12.10L-0.18 12.10Q-0.29 12.91-0.38 13.57L-0.38 13.57L-0.38 13.57Q-0.46 14.22-0.49 14.60L-0.49 14.60L-0.49 14.60Q-0.50 14.97-0.46 15.16L-0.46 15.16L-0.46 15.16Q-0.42 15.36-0.20 15.53L-0.20 15.53L-0.20 15.53Q-0.01 15.64 0.22 15.76L0.22 15.76L0.22 15.76Q0.45 15.89 0.66 15.95L0.66 15.95L0.66 15.95Q0.87 16.00 1.02 15.95L1.02 15.95L1.02 15.95Q1.18 15.89 1.19 15.64L1.19 15.64L1.19 15.64Q1.30 14.88 1.45 13.94L1.45 13.94L1.45 13.94Q1.60 12.99 1.78 11.98L1.78 11.98L1.78 11.98Q2.27 11.83 2.79 11.69L2.79 11.69L2.79 11.69Q3.32 11.55 3.81 11.44L3.81 11.44L3.81 11.44Q4.05 11.40 4.11 11.28L4.11 11.28L4.11 11.28Q4.17 11.17 4.10 10.89L4.10 10.89L4.10 10.89Q4.05 10.65 3.98 10.41L3.98 10.41L3.98 10.41Q3.92 10.16 3.81 9.91L3.81 9.91L3.81 9.91Q3.61 9.49 3.19 9.53L3.19 9.53L3.19 9.53Q2.93 9.55 2.67 9.58L2.67 9.58L2.67 9.58Q2.42 9.60 2.17 9.65L2.17 9.65L2.17 9.65Q2.31 9.00 2.40 8.42L2.40 8.42L2.40 8.42Q2.49 7.84 2.60 7.38L2.60 7.38L2.60 7.38Q3.19 7.27 3.74 7.18L3.74 7.18L3.74 7.18Q4.28 7.10 4.77 7.01ZM10.08 5.92L10.08 5.92L10.08 5.92Q9.80 5.63 9.37 5.43L9.37 5.43L9.37 5.43Q8.95 5.22 8.48 5.12L8.48 5.12L8.48 5.12Q8.13 5.05 7.74 5.20L7.74 5.20L7.74 5.20Q7.34 5.35 7.06 5.64L7.06 5.64L7.06 5.64Q6.38 6.38 5.94 7.48L5.94 7.48L5.94 7.48Q5.49 8.58 5.27 9.78L5.27 9.78L5.27 9.78Q5.05 10.98 5.08 12.15L5.08 12.15L5.08 12.15Q5.11 13.33 5.40 14.25L5.40 14.25L5.40 14.25Q5.53 14.64 5.77 14.95L5.77 14.95L5.77 14.95Q6.01 15.26 6.24 15.46L6.24 15.46L6.24 15.46Q6.55 15.69 6.92 15.81L6.92 15.81L6.92 15.81Q7.29 15.93 7.64 15.99L7.64 15.99L7.64 15.99Q8.18 16.07 8.59 15.93L8.59 15.93L8.59 15.93Q9.00 15.78 9.37 15.34L9.37 15.34L9.37 15.34Q9.88 14.63 10.22 13.64L10.22 13.64L10.22 13.64Q10.56 12.66 10.73 11.59L10.73 11.59L10.73 11.59Q10.91 10.51 10.92 9.46L10.92 9.46L10.92 9.46Q10.93 8.40 10.81 7.53L10.81 7.53L10.81 7.53Q10.72 7.04 10.56 6.65L10.56 6.65L10.56 6.65Q10.40 6.26 10.08 5.92ZM8.78 7.03L8.78 7.03L8.78 7.03Q8.95 7.10 9.03 7.52L9.03 7.52L9.03 7.52Q9.11 7.94 9.12 8.53L9.12 8.53L9.12 8.53Q9.13 9.11 9.07 9.79L9.07 9.79L9.07 9.79Q9.02 10.46 8.90 11.05L8.90 11.05L8.90 11.05Q8.78 11.79 8.60 12.42L8.60 12.42L8.60 12.42Q8.41 13.05 8.21 13.49L8.21 13.49L8.21 13.49Q8.01 13.93 7.79 14.14L7.79 14.14L7.79 14.14Q7.57 14.35 7.39 14.25L7.39 14.25L7.39 14.25Q7.18 14.15 7.08 13.75L7.08 13.75L7.08 13.75Q6.99 13.34 6.97 12.78L6.97 12.78L6.97 12.78Q6.96 12.21 7.02 11.55L7.02 11.55L7.02 11.55Q7.08 10.89 7.21 10.30L7.21 10.30L7.21 10.30Q7.34 9.73 7.53 9.11L7.53 9.11L7.53 9.11Q7.73 8.50 7.95 8.02L7.95 8.02L7.95 8.02Q8.16 7.53 8.39 7.25L8.39 7.25L8.39 7.25Q8.61 6.96 8.78 7.03ZM13.54 12.59L13.54 12.59L13.54 12.59Q13.78 13.01 14.06 13.43L14.06 13.43L14.06 13.43Q14.35 13.86 14.64 14.25L14.64 14.25L14.64 14.25Q14.94 14.64 15.22 14.98L15.22 14.98L15.22 14.98Q15.50 15.32 15.71 15.54L15.71 15.54L15.71 15.54Q16.03 15.83 16.28 15.87L16.28 15.87L16.28 15.87Q16.53 15.90 16.73 15.82L16.73 15.82L16.73 15.82Q16.90 15.78 17.02 15.74L17.02 15.74L17.02 15.74Q17.14 15.71 17.29 15.51L17.29 15.51L17.29 15.51Q17.43 15.36 17.44 15.22L17.44 15.22L17.44 15.22Q17.46 15.08 17.26 14.84L17.26 14.84L17.26 14.84Q17.02 14.56 16.76 14.20L16.76 14.20L16.76 14.20Q16.49 13.83 16.22 13.45L16.22 13.45L16.22 13.45Q15.95 13.06 15.69 12.67L15.69 12.67L15.69 12.67Q15.44 12.28 15.23 11.94L15.23 11.94L15.23 11.94Q16.21 11.31 16.90 10.59L16.90 10.59L16.90 10.59Q17.58 9.87 17.85 9.03L17.85 9.03L17.85 9.03Q18.03 8.54 17.88 7.74L17.88 7.74L17.88 7.74Q17.72 7.03 17.46 6.54L17.46 6.54L17.46 6.54Q17.21 6.05 16.91 5.64L16.91 5.64L16.91 5.64Q16.55 5.18 16.06 5.08L16.06 5.08L16.06 5.08Q15.58 4.97 15.05 5.10L15.05 5.10L15.05 5.10Q14.52 5.22 13.96 5.51L13.96 5.51L13.96 5.51Q13.41 5.80 12.91 6.10L12.91 6.10L12.91 6.10Q12.75 6.20 12.61 6.77L12.61 6.77L12.61 6.77Q12.47 7.34 12.33 8.16L12.33 8.16L12.33 8.16Q12.19 8.99 12.07 9.96L12.07 9.96L12.07 9.96Q11.96 10.93 11.86 11.85L11.86 11.85L11.86 11.85Q11.76 12.77 11.68 13.52L11.68 13.52L11.68 13.52Q11.61 14.28 11.56 14.67L11.56 14.67L11.56 14.67Q11.54 15.04 11.59 15.25L11.59 15.25L11.59 15.25Q11.65 15.47 11.82 15.62L11.82 15.62L11.82 15.62Q11.98 15.76 12.18 15.82L12.18 15.82L12.18 15.82Q12.38 15.88 12.61 15.97L12.61 15.97L12.61 15.97Q12.84 16.04 12.92 15.97L12.92 15.97L12.92 15.97Q13.01 15.90 13.05 15.68L13.05 15.68L13.05 15.68Q13.16 14.92 13.28 14.16L13.28 14.16L13.28 14.16Q13.40 13.40 13.54 12.59ZM14.52 7.60L14.52 7.60L14.52 7.60Q14.84 7.39 15.13 7.31L15.13 7.31L15.13 7.31Q15.43 7.22 15.67 7.22L15.67 7.22L15.67 7.22Q16.16 7.22 16.27 7.55L16.27 7.55L16.27 7.55Q16.32 7.74 16.19 8.11L16.19 8.11L16.19 8.11Q16.06 8.47 15.76 8.88L15.76 8.88L15.76 8.88Q15.46 9.28 14.99 9.69L14.99 9.69L14.99 9.69Q14.53 10.09 13.94 10.37L13.94 10.37L13.94 10.37Q14.11 9.58 14.24 8.88L14.24 8.88L14.24 8.88Q14.38 8.19 14.52 7.60ZM19.22 5.84L19.22 5.84L18.16 13.93L18.16 13.93Q18.13 14.29 18.21 14.56L18.21 14.56L18.21 14.56Q18.28 14.83 18.44 15.02L18.44 15.02L18.44 15.02Q18.62 15.27 18.76 15.44L18.76 15.44L18.76 15.44Q18.90 15.60 19.05 15.75L19.05 15.75L19.05 15.75Q19.19 15.89 19.38 15.97L19.38 15.97L19.38 15.97Q19.57 16.04 19.95 15.90L19.95 15.90L19.95 15.90Q20.51 15.75 21.13 15.57L21.13 15.57L21.13 15.57Q21.74 15.39 22.33 15.22L22.33 15.22L22.33 15.22Q22.57 15.15 22.62 15.04L22.62 15.04L22.62 15.04Q22.67 14.94 22.61 14.66L22.61 14.66L22.61 14.66Q22.54 14.41 22.47 14.17L22.47 14.17L22.47 14.17Q22.40 13.93 22.29 13.66L22.29 13.66L22.29 13.66Q22.19 13.43 22.04 13.34L22.04 13.34L22.04 13.34Q21.90 13.26 21.66 13.29L21.66 13.29L21.66 13.29Q21.21 13.33 20.82 13.39L20.82 13.39L20.82 13.39Q20.43 13.45 20.01 13.57L20.01 13.57L20.01 13.57Q20.08 13.20 20.15 12.82L20.15 12.82L20.15 12.82Q20.22 12.43 20.29 12.03L20.29 12.03L20.29 12.03Q20.80 11.87 21.36 11.74L21.36 11.74L21.36 11.74Q21.91 11.61 22.44 11.47L22.44 11.47L22.44 11.47Q22.68 11.40 22.74 11.30L22.74 11.30L22.74 11.30Q22.79 11.20 22.72 10.91L22.72 10.91L22.72 10.91Q22.67 10.65 22.60 10.42L22.60 10.42L22.60 10.42Q22.54 10.18 22.43 9.93L22.43 9.93L22.43 9.93Q22.33 9.69 22.19 9.61L22.19 9.61L22.19 9.61Q22.05 9.53 21.81 9.55L21.81 9.55L21.81 9.55Q21.53 9.56 21.27 9.58L21.27 9.58L21.27 9.58Q21.01 9.60 20.75 9.66L20.75 9.66L20.75 9.66Q20.89 9.03 21 8.46L21 8.46L21 8.46Q21.11 7.88 21.22 7.36L21.22 7.36L21.22 7.36Q21.81 7.25 22.35 7.17L22.35 7.17L22.35 7.17Q22.89 7.08 23.38 7.01L23.38 7.01L23.38 7.01Q23.62 6.97 23.68 6.87L23.68 6.87L23.68 6.87Q23.74 6.76 23.70 6.47L23.70 6.47L23.70 6.47Q23.65 6.22 23.60 6.01L23.60 6.01L23.60 6.01Q23.55 5.80 23.44 5.53L23.44 5.53L23.44 5.53Q23.30 5.03 22.83 5.05L22.83 5.05L22.83 5.05Q21.85 5.11 20.89 5.35L20.89 5.35L20.89 5.35Q19.94 5.59 19.22 5.84ZM23.31 13.01L23.31 13.01L23.31 13.01Q23.13 13.15 23.13 13.40L23.13 13.40L23.13 13.40Q23.13 13.65 23.52 14.17L23.52 14.17L23.52 14.17Q24.23 15.22 24.94 15.65L24.94 15.65L24.94 15.65Q25.65 16.09 26.40 16.06L26.40 16.06L26.40 16.06Q26.96 16.04 27.36 15.85L27.36 15.85L27.36 15.85Q27.76 15.65 28.03 15.36L28.03 15.36L28.03 15.36Q28.29 15.06 28.45 14.73L28.45 14.73L28.45 14.73Q28.62 14.39 28.70 14.10L28.70 14.10L28.70 14.10Q28.90 13.50 28.68 13.01L28.68 13.01L28.68 13.01Q28.46 12.53 28.05 12.09L28.05 12.09L28.05 12.09Q27.64 11.65 27.13 11.21L27.13 11.21L27.13 11.21Q26.61 10.77 26.22 10.25L26.22 10.25L26.22 10.25Q25.93 9.86 25.94 9.36L25.94 9.36L25.94 9.36Q25.96 8.86 26.12 8.39L26.12 8.39L26.12 8.39Q26.29 7.91 26.56 7.53L26.56 7.53L26.56 7.53Q26.82 7.14 27.03 6.99L27.03 6.99L27.03 6.99Q27.19 6.83 27.26 6.86L27.26 6.86L27.26 6.86Q27.33 6.89 27.34 7.04L27.34 7.04L27.34 7.04Q27.36 7.18 27.33 7.42L27.33 7.42L27.33 7.42Q27.30 7.66 27.26 7.92L27.26 7.92L27.26 7.92Q27.22 8.19 27.17 8.46L27.17 8.46L27.17 8.46Q27.13 8.74 27.12 8.95L27.12 8.95L27.12 8.95Q27.03 9.97 28.24 10.56L28.24 10.56L28.24 10.56Q28.46 10.68 28.57 10.61L28.57 10.61L28.57 10.61Q28.67 10.54 28.77 10.30L28.77 10.30L28.77 10.30Q28.85 10.04 28.93 9.67L28.93 9.67L28.93 9.67Q29.01 9.30 29.07 8.90L29.07 8.90L29.07 8.90Q29.13 8.50 29.18 8.11L29.18 8.11L29.18 8.11Q29.23 7.71 29.25 7.42L29.25 7.42L29.25 7.42Q29.23 7.07 29.17 6.65L29.17 6.65L29.17 6.65Q29.11 6.23 28.76 5.82L28.76 5.82L28.76 5.82Q28.49 5.52 28.11 5.26L28.11 5.26L28.11 5.26Q27.73 5.00 27.37 4.83L27.37 4.83L27.37 4.83Q27.13 4.73 26.91 4.72L26.91 4.72L26.91 4.72Q26.68 4.70 26.49 4.75L26.49 4.75L26.49 4.75Q26.29 4.79 26.14 4.88L26.14 4.88L26.14 4.88Q25.98 4.97 25.89 5.07L25.89 5.07L25.89 5.07Q25.59 5.31 25.29 5.67L25.29 5.67L25.29 5.67Q24.99 6.03 24.74 6.45L24.74 6.45L24.74 6.45Q24.49 6.87 24.30 7.31L24.30 7.31L24.30 7.31Q24.11 7.76 24.02 8.18L24.02 8.18L24.02 8.18Q23.77 9.14 23.98 9.96L23.98 9.96L23.98 9.96Q24.19 10.78 24.67 11.34L24.67 11.34L24.67 11.34Q25.00 11.75 25.44 12.14L25.44 12.14L25.44 12.14Q25.87 12.53 26.24 12.88L26.24 12.88L26.24 12.88Q26.60 13.23 26.79 13.50L26.79 13.50L26.79 13.50Q26.98 13.78 26.82 13.93L26.82 13.93L26.82 13.93Q26.57 14.24 26.00 14.04L26.00 14.04L26.00 14.04Q25.42 13.83 24.67 13.12L24.67 13.12L24.67 13.12Q24.40 12.87 24.02 12.83L24.02 12.83L24.02 12.83Q23.63 12.80 23.31 13.01ZM35.27 6.90L35.27 6.90L35.27 6.90Q35.52 6.87 35.56 6.78L35.56 6.78L35.56 6.78Q35.60 6.69 35.55 6.43L35.55 6.43L35.55 6.43Q35.48 6.15 35.36 5.85L35.36 5.85L35.36 5.85Q35.24 5.56 35.07 5.31L35.07 5.31L35.07 5.31Q34.99 5.17 34.87 5.10L34.87 5.10L34.87 5.10Q34.75 5.04 34.51 5.04L34.51 5.04L34.51 5.04Q34.03 5.07 33.42 5.12L33.42 5.12L33.42 5.12Q32.82 5.18 32.19 5.26L32.19 5.26L32.19 5.26Q31.56 5.35 30.95 5.46L30.95 5.46L30.95 5.46Q30.34 5.57 29.86 5.70L29.86 5.70L29.86 5.70Q29.71 5.75 29.65 5.84L29.65 5.84L29.65 5.84Q29.60 5.92 29.68 6.17L29.68 6.17L29.68 6.17Q29.76 6.41 29.90 6.78L29.90 6.78L29.90 6.78Q30.03 7.14 30.20 7.38L30.20 7.38L30.20 7.38Q30.35 7.62 30.48 7.67L30.48 7.67L30.48 7.67Q30.62 7.71 30.83 7.64L30.83 7.64L30.83 7.64Q30.98 7.59 31.21 7.55L31.21 7.55L31.21 7.55Q31.44 7.50 31.68 7.45L31.68 7.45L31.68 7.45Q31.54 8.25 31.39 9.23L31.39 9.23L31.39 9.23Q31.25 10.21 31.12 11.19L31.12 11.19L31.12 11.19Q31.00 12.17 30.90 13.08L30.90 13.08L30.90 13.08Q30.80 13.99 30.76 14.63L30.76 14.63L30.76 14.63Q30.67 15.16 30.90 15.41L30.90 15.41L30.90 15.41Q31.12 15.67 31.51 15.83L31.51 15.83L31.51 15.83Q31.71 15.92 31.87 15.99L31.87 15.99L31.87 15.99Q32.03 16.06 32.15 16.07L32.15 16.07L32.15 16.07Q32.27 16.09 32.34 16.02L32.34 16.02L32.34 16.02Q32.41 15.95 32.42 15.75L32.42 15.75L32.42 15.75Q32.55 14.76 32.71 13.65L32.71 13.65L32.71 13.65Q32.87 12.54 33.05 11.42L33.05 11.42L33.05 11.42Q33.24 10.29 33.42 9.19L33.42 9.19L33.42 9.19Q33.60 8.09 33.77 7.10L33.77 7.10L33.77 7.10Q34.17 7.04 34.56 6.99L34.56 6.99L34.56 6.99Q34.94 6.94 35.27 6.90ZM43.53 12.89L43.53 12.89L43.53 12.89Q42.67 12.54 42.14 13.34L42.14 13.34L42.14 13.34Q41.41 14.49 41.03 14.29L41.03 14.29L41.03 14.29Q40.84 14.21 40.75 13.85L40.75 13.85L40.75 13.85Q40.66 13.48 40.64 12.94L40.64 12.94L40.64 12.94Q40.63 12.40 40.69 11.76L40.69 11.76L40.69 11.76Q40.75 11.12 40.88 10.49L40.88 10.49L40.88 10.49Q41.01 9.90 41.22 9.24L41.22 9.24L41.22 9.24Q41.43 8.58 41.66 8.04L41.66 8.04L41.66 8.04Q41.90 7.49 42.13 7.15L42.13 7.15L42.13 7.15Q42.35 6.82 42.52 6.89L42.52 6.89L42.52 6.89Q42.69 6.97 42.72 7.27L42.72 7.27L42.72 7.27Q42.76 7.57 42.76 7.94L42.76 7.94L42.76 7.94Q42.76 8.05 42.76 8.16L42.76 8.16L42.76 8.16Q42.77 8.27 42.78 8.39L42.78 8.39L42.78 8.39Q42.87 8.97 43.12 9.32L43.12 9.32L43.12 9.32Q43.37 9.66 43.93 9.81L43.93 9.81L43.93 9.81Q44.23 9.90 44.30 9.78L44.30 9.78L44.30 9.78Q44.37 9.66 44.42 9.46L44.42 9.46L44.42 9.46Q44.51 9.04 44.53 8.43L44.53 8.43L44.53 8.43Q44.56 7.81 44.53 7.29L44.53 7.29L44.53 7.29Q44.51 6.85 44.39 6.50L44.39 6.50L44.39 6.50Q44.27 6.15 43.93 5.80L43.93 5.80L43.93 5.80Q43.61 5.52 43.13 5.27L43.13 5.27L43.13 5.27Q42.64 5.03 42.18 4.97L42.18 4.97L42.18 4.97Q41.87 4.94 41.52 5.05L41.52 5.05L41.52 5.05Q41.17 5.17 40.82 5.56L40.82 5.56L40.82 5.56Q40.39 6.06 40.03 6.76L40.03 6.76L40.03 6.76Q39.66 7.45 39.40 8.25L39.40 8.25L39.40 8.25Q39.13 9.06 38.96 9.92L38.96 9.92L38.96 9.92Q38.79 10.78 38.75 11.61L38.75 11.61L38.75 11.61Q38.70 12.45 38.77 13.19L38.77 13.19L38.77 13.19Q38.84 13.93 39.05 14.50L39.05 14.50L39.05 14.50Q39.17 14.90 39.42 15.19L39.42 15.19L39.42 15.19Q39.66 15.48 39.90 15.64L39.90 15.64L39.90 15.64Q40.18 15.78 40.54 15.94L40.54 15.94L40.54 15.94Q40.89 16.10 41.33 16.16L41.33 16.16L41.33 16.16Q41.75 16.21 42.18 16.05L42.18 16.05L42.18 16.05Q42.60 15.89 42.87 15.62L42.87 15.62L42.87 15.62Q43.12 15.34 43.37 14.92L43.37 14.92L43.37 14.92Q43.62 14.50 43.78 14.01L43.78 14.01L43.78 14.01Q43.92 13.59 43.90 13.31L43.90 13.31L43.90 13.31Q43.88 13.03 43.53 12.89ZM49.92 5.92L49.92 5.92L49.92 5.92Q49.64 5.63 49.22 5.43L49.22 5.43L49.22 5.43Q48.79 5.22 48.33 5.12L48.33 5.12L48.33 5.12Q47.98 5.05 47.58 5.20L47.58 5.20L47.58 5.20Q47.18 5.35 46.90 5.64L46.90 5.64L46.90 5.64Q46.23 6.38 45.78 7.48L45.78 7.48L45.78 7.48Q45.33 8.58 45.12 9.78L45.12 9.78L45.12 9.78Q44.90 10.98 44.93 12.15L44.93 12.15L44.93 12.15Q44.95 13.33 45.25 14.25L45.25 14.25L45.25 14.25Q45.37 14.64 45.61 14.95L45.61 14.95L45.61 14.95Q45.85 15.26 46.09 15.46L46.09 15.46L46.09 15.46Q46.40 15.69 46.77 15.81L46.77 15.81L46.77 15.81Q47.14 15.93 47.49 15.99L47.49 15.99L47.49 15.99Q48.02 16.07 48.43 15.93L48.43 15.93L48.43 15.93Q48.85 15.78 49.21 15.34L49.21 15.34L49.21 15.34Q49.73 14.63 50.06 13.64L50.06 13.64L50.06 13.64Q50.40 12.66 50.58 11.59L50.58 11.59L50.58 11.59Q50.75 10.51 50.76 9.46L50.76 9.46L50.76 9.46Q50.78 8.40 50.65 7.53L50.65 7.53L50.65 7.53Q50.57 7.04 50.41 6.65L50.41 6.65L50.41 6.65Q50.25 6.26 49.92 5.92ZM48.62 7.03L48.62 7.03L48.62 7.03Q48.79 7.10 48.87 7.52L48.87 7.52L48.87 7.52Q48.96 7.94 48.97 8.53L48.97 8.53L48.97 8.53Q48.97 9.11 48.92 9.79L48.92 9.79L48.92 9.79Q48.86 10.46 48.75 11.05L48.75 11.05L48.75 11.05Q48.62 11.79 48.44 12.42L48.44 12.42L48.44 12.42Q48.26 13.05 48.05 13.49L48.05 13.49L48.05 13.49Q47.85 13.93 47.64 14.14L47.64 14.14L47.64 14.14Q47.42 14.35 47.24 14.25L47.24 14.25L47.24 14.25Q47.03 14.15 46.93 13.75L46.93 13.75L46.93 13.75Q46.83 13.34 46.82 12.78L46.82 12.78L46.82 12.78Q46.80 12.21 46.87 11.55L46.87 11.55L46.87 11.55Q46.93 10.89 47.05 10.30L47.05 10.30L47.05 10.30Q47.18 9.73 47.38 9.11L47.38 9.11L47.38 9.11Q47.57 8.50 47.79 8.02L47.79 8.02L47.79 8.02Q48.01 7.53 48.23 7.25L48.23 7.25L48.23 7.25Q48.45 6.96 48.62 7.03ZM52.12 5.89L52.12 5.89L51.34 13.61L51.34 13.61Q51.30 13.94 51.31 14.16L51.31 14.16L51.31 14.16Q51.32 14.38 51.37 14.53L51.37 14.53L51.37 14.53Q51.42 14.69 51.51 14.80L51.51 14.80L51.51 14.80Q51.59 14.92 51.67 15.05L51.67 15.05L51.67 15.05Q51.91 15.33 52.10 15.52L52.10 15.52L52.10 15.52Q52.29 15.71 52.56 15.90L52.56 15.90L52.56 15.90Q53.06 16.31 53.55 16.03L53.55 16.03L53.55 16.03Q54.47 15.64 55.19 15.01L55.19 15.01L55.19 15.01Q55.90 14.38 56.40 13.61L56.40 13.61L56.40 13.61Q56.90 12.84 57.20 11.98L57.20 11.98L57.20 11.98Q57.50 11.13 57.60 10.28L57.60 10.28L57.60 10.28Q57.69 9.44 57.61 8.64L57.61 8.64L57.61 8.64Q57.53 7.85 57.26 7.22L57.26 7.22L57.26 7.22Q56.97 6.48 56.56 6.03L56.56 6.03L56.56 6.03Q56.15 5.59 55.69 5.36L55.69 5.36L55.69 5.36Q55.22 5.14 54.72 5.10L54.72 5.10L54.72 5.10Q54.22 5.07 53.75 5.17L53.75 5.17L53.75 5.17Q53.28 5.26 52.86 5.47L52.86 5.47L52.86 5.47Q52.43 5.67 52.12 5.89ZM53.09 13.85L53.09 13.85L53.09 13.85Q53.33 12.15 53.59 10.56L53.59 10.56L53.59 10.56Q53.84 8.96 54.15 7.43L54.15 7.43L54.15 7.43Q54.68 7.20 55.07 7.38L55.07 7.38L55.07 7.38Q55.45 7.57 55.61 7.97L55.61 7.97L55.61 7.97Q55.68 8.16 55.72 8.44L55.72 8.44L55.72 8.44Q55.76 8.72 55.75 9.09L55.75 9.09L55.75 9.09Q55.73 9.62 55.58 10.26L55.58 10.26L55.58 10.26Q55.43 10.91 55.11 11.55L55.11 11.55L55.11 11.55Q54.80 12.19 54.30 12.80L54.30 12.80L54.30 12.80Q53.80 13.40 53.09 13.85ZM59.12 5.84L59.12 5.84L58.06 13.93L58.06 13.93Q58.03 14.29 58.11 14.56L58.11 14.56L58.11 14.56Q58.18 14.83 58.34 15.02L58.34 15.02L58.34 15.02Q58.52 15.27 58.66 15.44L58.66 15.44L58.66 15.44Q58.80 15.60 58.95 15.75L58.95 15.75L58.95 15.75Q59.09 15.89 59.28 15.97L59.28 15.97L59.28 15.97Q59.47 16.04 59.85 15.90L59.85 15.90L59.85 15.90Q60.41 15.75 61.03 15.57L61.03 15.57L61.03 15.57Q61.64 15.39 62.23 15.22L62.23 15.22L62.23 15.22Q62.47 15.15 62.52 15.04L62.52 15.04L62.52 15.04Q62.57 14.94 62.51 14.66L62.51 14.66L62.51 14.66Q62.44 14.41 62.37 14.17L62.37 14.17L62.37 14.17Q62.30 13.93 62.19 13.66L62.19 13.66L62.19 13.66Q62.09 13.43 61.94 13.34L61.94 13.34L61.94 13.34Q61.80 13.26 61.56 13.29L61.56 13.29L61.56 13.29Q61.11 13.33 60.72 13.39L60.72 13.39L60.72 13.39Q60.33 13.45 59.91 13.57L59.91 13.57L59.91 13.57Q59.98 13.20 60.05 12.82L60.05 12.82L60.05 12.82Q60.12 12.43 60.19 12.03L60.19 12.03L60.19 12.03Q60.70 11.87 61.26 11.74L61.26 11.74L61.26 11.74Q61.81 11.61 62.34 11.47L62.34 11.47L62.34 11.47Q62.58 11.40 62.64 11.30L62.64 11.30L62.64 11.30Q62.69 11.20 62.62 10.91L62.62 10.91L62.62 10.91Q62.57 10.65 62.50 10.42L62.50 10.42L62.50 10.42Q62.44 10.18 62.33 9.93L62.33 9.93L62.33 9.93Q62.23 9.69 62.09 9.61L62.09 9.61L62.09 9.61Q61.95 9.53 61.71 9.55L61.71 9.55L61.71 9.55Q61.43 9.56 61.17 9.58L61.17 9.58L61.17 9.58Q60.91 9.60 60.65 9.66L60.65 9.66L60.65 9.66Q60.79 9.03 60.90 8.46L60.90 8.46L60.90 8.46Q61.01 7.88 61.12 7.36L61.12 7.36L61.12 7.36Q61.71 7.25 62.25 7.17L62.25 7.17L62.25 7.17Q62.79 7.08 63.28 7.01L63.28 7.01L63.28 7.01Q63.52 6.97 63.58 6.87L63.58 6.87L63.58 6.87Q63.64 6.76 63.60 6.47L63.60 6.47L63.60 6.47Q63.55 6.22 63.50 6.01L63.50 6.01L63.50 6.01Q63.45 5.80 63.34 5.53L63.34 5.53L63.34 5.53Q63.20 5.03 62.73 5.05L62.73 5.05L62.73 5.05Q61.75 5.11 60.80 5.35L60.80 5.35L60.80 5.35Q59.84 5.59 59.12 5.84ZM71.11 13.17L71.11 13.17L71.11 13.17Q71.13 13.72 71.18 14.20L71.18 14.20L71.18 14.20Q71.22 14.67 71.26 15.08L71.26 15.08L71.26 15.08Q71.30 15.47 71.39 15.62L71.39 15.62L71.39 15.62Q71.48 15.78 71.71 15.88L71.71 15.88L71.71 15.88Q71.93 15.99 72.14 16.01L72.14 16.01L72.14 16.01Q72.35 16.03 72.59 16.03L72.59 16.03L72.59 16.03Q72.83 16.03 72.90 15.93L72.90 15.93L72.90 15.93Q72.97 15.83 72.95 15.58L72.95 15.58L72.95 15.58Q72.90 14.41 72.85 13.11L72.85 13.11L72.85 13.11Q72.80 11.82 72.77 10.57L72.77 10.57L72.77 10.57Q72.73 9.32 72.72 8.21L72.72 8.21L72.72 8.21Q72.72 7.10 72.73 6.30L72.73 6.30L72.73 6.30Q72.74 5.98 72.67 5.78L72.67 5.78L72.67 5.78Q72.59 5.57 72.32 5.46L72.32 5.46L72.32 5.46Q71.96 5.32 71.55 5.18L71.55 5.18L71.55 5.18Q71.15 5.04 70.49 5.00L70.49 5.00L70.49 5.00Q70.11 4.96 69.92 5.14L69.92 5.14L69.92 5.14Q69.72 5.32 69.59 5.61L69.59 5.61L69.59 5.61Q69.24 6.45 68.82 7.60L68.82 7.60L68.82 7.60Q68.40 8.74 68.00 9.95L68.00 9.95L68.00 9.95Q67.59 11.16 67.22 12.33L67.22 12.33L67.22 12.33Q66.85 13.50 66.60 14.42L66.60 14.42L66.60 14.42Q66.51 14.83 66.53 14.99L66.53 14.99L66.53 14.99Q66.54 15.16 66.64 15.30L66.64 15.30L66.64 15.30Q66.74 15.44 66.88 15.55L66.88 15.55L66.88 15.55Q67.02 15.67 67.17 15.76L67.17 15.76L67.17 15.76Q67.31 15.85 67.42 15.92L67.42 15.92L67.42 15.92Q67.63 16.03 67.74 15.99L67.74 15.99L67.74 15.99Q67.84 15.95 67.93 15.71L67.93 15.71L67.93 15.71Q68.07 15.26 68.22 14.79L68.22 14.79L68.22 14.79Q68.36 14.32 68.56 13.79L68.56 13.79L68.56 13.79Q69.08 13.59 69.75 13.45L69.75 13.45L69.75 13.45Q70.43 13.31 71.11 13.17ZM69.38 11.35L69.38 11.35L69.38 11.35Q69.79 10.18 70.19 9.11L70.19 9.11L70.19 9.11Q70.59 8.05 70.91 7.21L70.91 7.21L70.91 7.21Q70.91 8.13 70.94 9.11L70.94 9.11L70.94 9.11Q70.97 10.09 70.99 11.10L70.99 11.10L70.99 11.10Q70.18 11.19 69.38 11.35ZM79.27 9.51L79.27 9.51L79.27 9.51Q79.30 9.31 79.32 9.03L79.32 9.03L79.32 9.03Q79.34 8.75 79.34 8.45L79.34 8.45L79.34 8.45Q79.35 8.15 79.34 7.84L79.34 7.84L79.34 7.84Q79.34 7.53 79.31 7.29L79.31 7.29L79.31 7.29Q79.25 6.85 79.12 6.49L79.12 6.49L79.12 6.49Q78.99 6.13 78.71 5.84L78.71 5.84L78.71 5.84Q78.41 5.52 77.97 5.30L77.97 5.30L77.97 5.30Q77.53 5.08 77.11 5.01L77.11 5.01L77.11 5.01Q76.82 4.96 76.45 5.01L76.45 5.01L76.45 5.01Q76.09 5.07 75.80 5.36L75.80 5.36L75.80 5.36Q75.32 5.82 74.93 6.50L74.93 6.50L74.93 6.50Q74.54 7.17 74.24 7.96L74.24 7.96L74.24 7.96Q73.95 8.75 73.76 9.60L73.76 9.60L73.76 9.60Q73.57 10.46 73.50 11.30L73.50 11.30L73.50 11.30Q73.43 12.14 73.49 12.90L73.49 12.90L73.49 12.90Q73.56 13.66 73.77 14.27L73.77 14.27L73.77 14.27Q73.88 14.66 74.10 14.99L74.10 14.99L74.10 14.99Q74.33 15.32 74.56 15.51L74.56 15.51L74.56 15.51Q75.21 15.96 75.95 16.10L75.95 16.10L75.95 16.10Q76.78 16.30 77.45 15.72L77.45 15.72L77.45 15.72Q77.95 15.26 78.37 14.42L78.37 14.42L78.37 14.42Q78.79 13.58 79.09 12.39L79.09 12.39L79.09 12.39Q79.16 12.04 79.14 11.82L79.14 11.82L79.14 11.82Q79.13 11.59 78.97 11.30L78.97 11.30L78.97 11.30Q78.89 11.14 78.79 10.96L78.79 10.96L78.79 10.96Q78.69 10.78 78.58 10.63L78.58 10.63L78.58 10.63Q78.43 10.39 78.24 10.32L78.24 10.32L78.24 10.32Q78.05 10.25 77.76 10.30L77.76 10.30L77.76 10.30Q77.50 10.36 77.15 10.42L77.15 10.42L77.15 10.42Q76.80 10.49 76.48 10.58L76.48 10.58L76.48 10.58Q76.15 10.65 75.94 10.74L75.94 10.74L75.94 10.74Q75.73 10.82 75.80 11.14L75.80 11.14L75.80 11.14Q75.95 11.86 76.24 12.17L76.24 12.17L76.24 12.17Q76.54 12.49 77.07 12.45L77.07 12.45L77.07 12.45Q76.93 12.88 76.77 13.27L76.77 13.27L76.77 13.27Q76.61 13.65 76.43 13.92L76.43 13.92L76.43 13.92Q76.26 14.18 76.08 14.31L76.08 14.31L76.08 14.31Q75.91 14.43 75.74 14.35L75.74 14.35L75.74 14.35Q75.54 14.25 75.45 13.85L75.45 13.85L75.45 13.85Q75.35 13.45 75.33 12.89L75.33 12.89L75.33 12.89Q75.32 12.32 75.40 11.66L75.40 11.66L75.40 11.66Q75.47 11.00 75.63 10.40L75.63 10.40L75.63 10.40Q75.80 9.67 76.03 9.02L76.03 9.02L76.03 9.02Q76.26 8.36 76.50 7.88L76.50 7.88L76.50 7.88Q76.73 7.39 76.97 7.13L76.97 7.13L76.97 7.13Q77.20 6.86 77.36 6.93L77.36 6.93L77.36 6.93Q77.45 6.96 77.48 7.11L77.48 7.11L77.48 7.11Q77.52 7.27 77.55 7.48L77.55 7.48L77.55 7.48Q77.56 7.59 77.57 7.71L77.57 7.71L77.57 7.71Q77.57 7.83 77.57 7.95L77.57 7.95L77.57 7.95Q77.57 8.08 77.58 8.19L77.58 8.19L77.58 8.19Q77.59 8.30 77.60 8.41L77.60 8.41L77.60 8.41Q77.66 9.02 77.95 9.39L77.95 9.39L77.95 9.39Q78.23 9.77 78.83 9.88L78.83 9.88L78.83 9.88Q79.06 9.91 79.14 9.83L79.14 9.83L79.14 9.83Q79.21 9.74 79.27 9.51ZM80.78 5.84L80.78 5.84L79.72 13.93L79.72 13.93Q79.69 14.29 79.77 14.56L79.77 14.56L79.77 14.56Q79.84 14.83 80.00 15.02L80.00 15.02L80.00 15.02Q80.18 15.27 80.32 15.44L80.32 15.44L80.32 15.44Q80.46 15.60 80.61 15.75L80.61 15.75L80.61 15.75Q80.75 15.89 80.94 15.97L80.94 15.97L80.94 15.97Q81.13 16.04 81.51 15.90L81.51 15.90L81.51 15.90Q82.07 15.75 82.68 15.57L82.68 15.57L82.68 15.57Q83.30 15.39 83.89 15.22L83.89 15.22L83.89 15.22Q84.13 15.15 84.18 15.04L84.18 15.04L84.18 15.04Q84.22 14.94 84.17 14.66L84.17 14.66L84.17 14.66Q84.10 14.41 84.03 14.17L84.03 14.17L84.03 14.17Q83.96 13.93 83.85 13.66L83.85 13.66L83.85 13.66Q83.75 13.43 83.60 13.34L83.60 13.34L83.60 13.34Q83.45 13.26 83.22 13.29L83.22 13.29L83.22 13.29Q82.77 13.33 82.38 13.39L82.38 13.39L82.38 13.39Q81.98 13.45 81.56 13.57L81.56 13.57L81.56 13.57Q81.63 13.20 81.70 12.82L81.70 12.82L81.70 12.82Q81.77 12.43 81.84 12.03L81.84 12.03L81.84 12.03Q82.36 11.87 82.92 11.74L82.92 11.74L82.92 11.74Q83.47 11.61 84 11.47L84 11.47L84 11.47Q84.24 11.40 84.29 11.30L84.29 11.30L84.29 11.30Q84.35 11.20 84.28 10.91L84.28 10.91L84.28 10.91Q84.22 10.65 84.16 10.42L84.16 10.42L84.16 10.42Q84.10 10.18 83.99 9.93L83.99 9.93L83.99 9.93Q83.89 9.69 83.75 9.61L83.75 9.61L83.75 9.61Q83.61 9.53 83.37 9.55L83.37 9.55L83.37 9.55Q83.09 9.56 82.83 9.58L82.83 9.58L82.83 9.58Q82.57 9.60 82.31 9.66L82.31 9.66L82.31 9.66Q82.45 9.03 82.56 8.46L82.56 8.46L82.56 8.46Q82.67 7.88 82.78 7.36L82.78 7.36L82.78 7.36Q83.37 7.25 83.91 7.17L83.91 7.17L83.91 7.17Q84.45 7.08 84.94 7.01L84.94 7.01L84.94 7.01Q85.18 6.97 85.24 6.87L85.24 6.87L85.24 6.87Q85.30 6.76 85.26 6.47L85.26 6.47L85.26 6.47Q85.20 6.22 85.16 6.01L85.16 6.01L85.16 6.01Q85.11 5.80 84.99 5.53L84.99 5.53L84.99 5.53Q84.85 5.03 84.39 5.05L84.39 5.05L84.39 5.05Q83.41 5.11 82.45 5.35L82.45 5.35L82.45 5.35Q81.49 5.59 80.78 5.84ZM89.15 11.38L89.15 11.38L89.15 11.38Q89.05 10.75 88.96 10.07L88.96 10.07L88.96 10.07Q88.86 9.39 88.77 8.77L88.77 8.77L88.77 8.77Q88.68 8.15 88.61 7.62L88.61 7.62L88.61 7.62Q88.54 7.10 88.49 6.78L88.49 6.78L88.49 6.78Q88.44 6.36 88.33 6.14L88.33 6.14L88.33 6.14Q88.23 5.92 87.98 5.78L87.98 5.78L87.98 5.78Q87.67 5.59 87.38 5.46L87.38 5.46L87.38 5.46Q87.09 5.33 86.80 5.22L86.80 5.22L86.80 5.22Q86.56 5.14 86.41 5.22L86.41 5.22L86.41 5.22Q86.25 5.31 86.18 5.63L86.18 5.63L86.18 5.63Q86.07 6.22 85.95 7L85.95 7L85.95 7Q85.82 7.78 85.70 8.66L85.70 8.66L85.70 8.66Q85.58 9.53 85.46 10.42L85.46 10.42L85.46 10.42Q85.34 11.31 85.25 12.11L85.25 12.11L85.25 12.11Q85.16 12.91 85.09 13.54L85.09 13.54L85.09 13.54Q85.02 14.18 84.99 14.55L84.99 14.55L84.99 14.55Q84.95 14.91 85.02 15.11L85.02 15.11L85.02 15.11Q85.08 15.32 85.27 15.47L85.27 15.47L85.27 15.47Q85.47 15.67 85.70 15.76L85.70 15.76L85.70 15.76Q85.93 15.85 86.16 15.93L86.16 15.93L86.16 15.93Q86.39 16.03 86.48 15.97L86.48 15.97L86.48 15.97Q86.58 15.90 86.60 15.67L86.60 15.67L86.60 15.67Q86.66 15.16 86.75 14.50L86.75 14.50L86.75 14.50Q86.84 13.85 86.95 13.10L86.95 13.10L86.95 13.10Q87.05 12.36 87.17 11.56L87.17 11.56L87.17 11.56Q87.29 10.75 87.40 9.97L87.40 9.97L87.40 9.97Q87.51 10.63 87.64 11.28L87.64 11.28L87.64 11.28Q87.77 11.94 87.89 12.57L87.89 12.57L87.89 12.57Q88.02 13.19 88.15 13.73L88.15 13.73L88.15 13.73Q88.28 14.28 88.41 14.70L88.41 14.70L88.41 14.70Q88.58 15.30 88.98 15.54L88.98 15.54L88.98 15.54Q89.21 15.65 89.43 15.74L89.43 15.74L89.43 15.74Q89.64 15.83 89.87 15.90L89.87 15.90L89.87 15.90Q90.37 16.07 90.41 15.54L90.41 15.54L90.41 15.54Q90.54 14.57 90.70 13.38L90.70 13.38L90.70 13.38Q90.86 12.18 91.03 10.96L91.03 10.96L91.03 10.96Q91.20 9.74 91.37 8.60L91.37 8.60L91.37 8.60Q91.55 7.46 91.70 6.61L91.70 6.61L91.70 6.61Q91.76 6.31 91.71 6.11L91.71 6.11L91.71 6.11Q91.67 5.91 91.43 5.71L91.43 5.71L91.43 5.71Q91.14 5.47 90.97 5.39L90.97 5.39L90.97 5.39Q90.80 5.31 90.55 5.22L90.55 5.22L90.55 5.22Q90.30 5.14 90.17 5.21L90.17 5.21L90.17 5.21Q90.03 5.29 89.98 5.60L89.98 5.60L89.98 5.60Q89.77 6.79 89.54 8.28L89.54 8.28L89.54 8.28Q89.31 9.77 89.15 11.38ZM96.45 12.89L96.45 12.89L96.45 12.89Q95.59 12.54 95.06 13.34L95.06 13.34L95.06 13.34Q94.33 14.49 93.95 14.29L93.95 14.29L93.95 14.29Q93.76 14.21 93.67 13.85L93.67 13.85L93.67 13.85Q93.58 13.48 93.56 12.94L93.56 12.94L93.56 12.94Q93.55 12.40 93.61 11.76L93.61 11.76L93.61 11.76Q93.67 11.12 93.80 10.49L93.80 10.49L93.80 10.49Q93.93 9.90 94.14 9.24L94.14 9.24L94.14 9.24Q94.35 8.58 94.58 8.04L94.58 8.04L94.58 8.04Q94.82 7.49 95.05 7.15L95.05 7.15L95.05 7.15Q95.27 6.82 95.44 6.89L95.44 6.89L95.44 6.89Q95.61 6.97 95.64 7.27L95.64 7.27L95.64 7.27Q95.68 7.57 95.68 7.94L95.68 7.94L95.68 7.94Q95.68 8.05 95.68 8.16L95.68 8.16L95.68 8.16Q95.69 8.27 95.70 8.39L95.70 8.39L95.70 8.39Q95.79 8.97 96.04 9.32L96.04 9.32L96.04 9.32Q96.29 9.66 96.85 9.81L96.85 9.81L96.85 9.81Q97.15 9.90 97.22 9.78L97.22 9.78L97.22 9.78Q97.29 9.66 97.34 9.46L97.34 9.46L97.34 9.46Q97.43 9.04 97.45 8.43L97.45 8.43L97.45 8.43Q97.48 7.81 97.45 7.29L97.45 7.29L97.45 7.29Q97.43 6.85 97.31 6.50L97.31 6.50L97.31 6.50Q97.19 6.15 96.85 5.80L96.85 5.80L96.85 5.80Q96.53 5.52 96.05 5.27L96.05 5.27L96.05 5.27Q95.56 5.03 95.10 4.97L95.10 4.97L95.10 4.97Q94.79 4.94 94.44 5.05L94.44 5.05L94.44 5.05Q94.09 5.17 93.74 5.56L93.74 5.56L93.74 5.56Q93.31 6.06 92.95 6.76L92.95 6.76L92.95 6.76Q92.58 7.45 92.32 8.25L92.32 8.25L92.32 8.25Q92.05 9.06 91.88 9.92L91.88 9.92L91.88 9.92Q91.71 10.78 91.67 11.61L91.67 11.61L91.67 11.61Q91.62 12.45 91.69 13.19L91.69 13.19L91.69 13.19Q91.76 13.93 91.97 14.50L91.97 14.50L91.97 14.50Q92.09 14.90 92.34 15.19L92.34 15.19L92.34 15.19Q92.58 15.48 92.82 15.64L92.82 15.64L92.82 15.64Q93.10 15.78 93.46 15.94L93.46 15.94L93.46 15.94Q93.81 16.10 94.25 16.16L94.25 16.16L94.25 16.16Q94.67 16.21 95.10 16.05L95.10 16.05L95.10 16.05Q95.52 15.89 95.79 15.62L95.79 15.62L95.79 15.62Q96.04 15.34 96.29 14.92L96.29 14.92L96.29 14.92Q96.54 14.50 96.70 14.01L96.70 14.01L96.70 14.01Q96.84 13.59 96.82 13.31L96.82 13.31L96.82 13.31Q96.80 13.03 96.45 12.89ZM103.74 6.76L103.74 6.76L103.74 6.76Q103.85 6.41 103.84 6.22L103.84 6.22L103.84 6.22Q103.82 6.02 103.67 5.78L103.67 5.78L103.67 5.78Q103.53 5.61 103.34 5.42L103.34 5.42L103.34 5.42Q103.15 5.22 102.96 5.10L102.96 5.10L102.96 5.10Q102.77 4.97 102.61 4.98L102.61 4.98L102.61 4.98Q102.45 5.00 102.38 5.26L102.38 5.26L102.38 5.26Q101.98 6.27 101.54 7.30L101.54 7.30L101.54 7.30Q101.11 8.33 100.66 9.34L100.66 9.34L100.66 9.34Q100.44 8.33 100.23 7.45L100.23 7.45L100.23 7.45Q100.03 6.57 99.85 5.89L99.85 5.89L99.85 5.89Q99.74 5.54 99.62 5.38L99.62 5.38L99.62 5.38Q99.51 5.21 99.27 5.14L99.27 5.14L99.27 5.14Q99.04 5.07 98.80 5.08L98.80 5.08L98.80 5.08Q98.56 5.10 98.32 5.12L98.32 5.12L98.32 5.12Q98.10 5.17 98.06 5.27L98.06 5.27L98.06 5.27Q98.01 5.38 98.08 5.67L98.08 5.67L98.08 5.67Q98.21 6.29 98.37 7.04L98.37 7.04L98.37 7.04Q98.53 7.78 98.71 8.58L98.71 8.58L98.71 8.58Q98.90 9.38 99.08 10.19L99.08 10.19L99.08 10.19Q99.26 10.99 99.43 11.75L99.43 11.75L99.43 11.75Q99.32 12.63 99.24 13.39L99.24 13.39L99.24 13.39Q99.16 14.15 99.09 14.74L99.09 14.74L99.09 14.74Q99.06 15.11 99.13 15.29L99.13 15.29L99.13 15.29Q99.19 15.48 99.39 15.68L99.39 15.68L99.39 15.68Q99.58 15.81 99.83 15.93L99.83 15.93L99.83 15.93Q100.07 16.04 100.30 16.14L100.30 16.14L100.30 16.14Q100.53 16.23 100.62 16.16L100.62 16.16L100.62 16.16Q100.70 16.10 100.76 15.82L100.76 15.82L100.76 15.82Q100.86 15.06 100.97 14.27L100.97 14.27L100.97 14.27Q101.08 13.48 101.23 12.60L101.23 12.60L101.23 12.60Q101.61 11.80 102.00 10.95L102.00 10.95L102.00 10.95Q102.40 10.09 102.74 9.31L102.74 9.31L102.74 9.31Q103.08 8.53 103.35 7.86L103.35 7.86L103.35 7.86Q103.61 7.20 103.74 6.76Z"></path></g><defs data-v-fde0c5aa=""><!----></defs><g data-v-fde0c5aa="" id="2aa28e95-0c5e-41ba-8c99-51438af27d33" stroke="none" fill="#DBC676" transform="matrix(0.3039207103084965,0,0,0.3039207103084965,-128.36945798233324,22.14540424850871)"><path d="M630.837 401.9c-1.795-3.749-5.076-6.261-8.789-7.285a10.135 10.135 0 0 0-.432-7.791c-1.861-3.917-5.926-6.073-10.021-5.742-.012-1.456-.305-2.927-.979-4.323a10.188 10.188 0 0 0-13.609-4.811c-1.568.743-2.818 1.868-3.779 3.174-2.975-2.443-7.194-3.127-10.89-1.356a10.206 10.206 0 0 0-5.698 7.673c-2.292-.645-4.812-.531-7.138.58-5.098 2.432-7.241 8.528-4.813 13.608.098.206.237.374.344.568-.131.059-.264.1-.395.163-9.324 4.461-13.27 15.638-8.812 24.978 3.371 7.066 10.603 11.033 17.965 10.611.047 1.359.362 2.729.984 4.033 2.43 5.078 8.53 7.234 13.609 4.822.831-.398 1.554-.924 2.222-1.5v31.121h9.115v-28.652c4.168 1.523 8.916 1.457 13.232-.605 7.613-3.633 11.254-12.188 9.027-20.047.795-.219 1.584-.481 2.352-.851 6.88-3.28 9.771-11.508 6.505-18.368z"></path></g><!----></svg>